<?xml version="1.0" encoding="utf-8"?>
<!-- Generator: Adobe Illustrator 25.0.1, SVG Export Plug-In . SVG Version: 6.00 Build 0)  -->
<svg version="1.1" id="Livello_1" xmlns="http://www.w3.org/2000/svg" xmlns:xlink="http://www.w3.org/1999/xlink" x="0px" y="0px"
	 viewBox="0 0 629.1 194.1" style="enable-background:new 0 0 629.1 194.1;" xml:space="preserve">
<style type="text/css">
	.st0{fill:#FFFFFF;}
</style>
<g>
	<path class="st0" d="M45.9,113.6h4.4c2.8,0,4.1,2.3,4.1,7c0,3.1-0.5,5.6-1.5,7.3c-1,1.8-2.3,2.7-4.1,2.7h-6l-2.2,13.1
		c-2.4,14.4-4.9,24.6-7.5,30.6s-5.9,8.9-9.8,8.9c-3.7,0-6.8-2.9-9.3-8.8c-2.5-5.8-3.7-13.1-3.7-21.9c0-13.8,2.8-24.5,8.3-31.9
		c3.4-4.5,8.1-6.7,14-6.7l4.7-0.1l1-6c-1.5,1.3-3.1,2-4.6,2c-3,0-5.5-2.5-7.4-7.6c-1.9-5-2.8-11.7-2.8-19.9h-4.1h-0.8
		c-2.2,0-3.3-2.2-3.3-6.7c0-2.9,0.5-5.3,1.4-7.3c0.9-2,2-2.9,3.4-2.9H21h4.3c2.2-10.3,4.9-18.3,8.2-24.1c3.3-5.8,6.8-8.7,10.5-8.7
		c3,0,5.5,2.1,7.4,6.4c1.9,4.3,2.9,9.7,2.9,16.5c0,9.5-1.8,16.7-5.3,21.9c-2.4,3.4-5.9,5.1-10.7,5.1h-6.8v1.4c0,6.1,1.5,9.1,4.5,9.1
		c1.3,0,2.7-0.9,4.1-2.8l1.6-2.2c1.4-1.9,2.5-2.8,3.5-2.8c1.1,0,2,0.8,2.7,2.3c0.7,1.6,1.1,3.6,1.1,6c0,1.5-0.3,3.9-0.8,7.2
		L45.9,113.6z M34.6,130.6c-4.2,0-7.4,0.9-9.6,2.8c-2.1,1.8-3.7,4.3-4.9,7.6c-1.2,3.3-1.8,6.9-1.8,10.9c0,3.7,0.5,6.8,1.5,9.4
		c1,2.6,2.3,3.8,3.8,3.8c1.8,0,3.4-1.9,4.9-5.7c1.5-3.8,2.9-10,4.4-18.6L34.6,130.6z M33.7,65.1h5.8c4.9,0,7.4-3.2,7.4-9.6
		c0-1.9-0.3-3.5-1-4.7c-0.6-1.3-1.5-1.9-2.5-1.9c-1.5,0-3.2,1.4-4.9,4.3C36.8,56.2,35.2,60.1,33.7,65.1z"/>
	<path class="st0" d="M64.2,91.8l-1,6c-0.9,5.3-2.1,7.9-3.6,7.9c-0.9,0-1.6-0.6-2.2-1.9c-0.6-1.3-0.9-2.9-0.9-4.8
		c0-1.1,0.2-2.9,0.7-5.5l3.4-19.8c0.8-4.8,2-7.2,3.5-7.2c1.5,0,2.4,1.7,2.7,5l0.2,2.2c0.1,1.1,0.3,1.8,0.5,2.1
		c0.2,0.3,0.8,0.4,1.8,0.4h7c2.6,0,3.9,2.2,3.9,6.5c0,6-1.6,9-4.9,9l-0.3,0.7c-3.2,7.2-4.7,12.8-4.7,16.7c0,3.9,0.9,5.9,2.7,5.9h3.8
		c2.5,0,3.8,2.1,3.8,6.2c0,2.9-0.4,5.2-1.3,6.8c-0.9,1.6-2.1,2.4-3.7,2.4h-5.8c-2,0-3.6-1.6-4.9-4.9c-1.3-3.3-1.9-7.5-1.9-12.7
		c0-3.3,0.3-6.5,1-9.7c0.7-3.1,1.9-7,3.6-11.5H64.2z"/>
	<path class="st0" d="M102,115.1h3.3c2.5,0,3.8,2.1,3.8,6.2c0,2.9-0.4,5.1-1.3,6.8c-0.9,1.6-2.1,2.4-3.7,2.4h-3.8
		c-1.7,0-2.9-1.6-3.5-4.8c-1.5,3.2-2.9,4.8-4.3,4.8H89c-2.2,0-3.9-1.9-5.3-5.6c-1.3-3.7-2-8.6-2-14.6c0-9.1,1.3-17.2,3.9-24.4
		c2.6-7.2,5.6-10.8,8.9-10.8c2.5,0,4.4,2.1,5.6,6.3c1-3.5,2.3-5.3,3.9-5.3c0.9,0,1.6,0.7,2.2,2c0.6,1.3,0.9,3,0.9,4.9
		c0,1.3-0.2,2.9-0.5,4.8l-0.3,1.9L102,115.1z M91.2,115.5H92c1.6,0,2.7-1.6,3.2-4.8l2.1-12.3c0.3-1.6,0.4-3,0.4-4
		c0-1.3-0.3-2.4-0.8-3.3c-0.5-0.9-1.2-1.4-1.9-1.4c-1.5,0-2.9,2-4.2,6c-1.4,4-2.1,8.2-2.1,12.5C88.8,113,89.6,115.5,91.2,115.5z"/>
	<path class="st0" d="M125,76.3c0.9-0.7,1.7-1,2.4-1c2.3,0,4.2,2,5.6,6.1c1.4,4.1,2.1,9.4,2.1,15.9c0,12.6-2,22.5-6.1,29.5
		c-1.4,2.5-2.9,3.7-4.5,3.7h-2.8c-2,0-3.6-1.7-5-5c-0.8,3.4-2.1,5-3.9,5c-0.9,0-1.6-0.7-2.2-2c-0.6-1.3-0.9-2.9-0.9-4.8
		c0-1.4,0.2-3.1,0.5-4.9l0.3-1.9l12.5-73.3l0.3-2c0.9-5.3,2.4-7.9,4.3-7.9c0.9,0,1.6,0.7,2.3,2c0.6,1.3,0.9,2.9,0.9,4.8
		c0,1.5-0.2,3.1-0.5,4.9l-0.3,2L125,76.3z M119.1,111.1c1,3,2.2,4.5,3.5,4.5c1,0,1.8-0.6,2.4-1.9c0.9-1.8,1.7-4.4,2.4-7.8
		c0.7-3.5,1-6.6,1-9.3c0-2.1-0.3-3.9-0.8-5.2c-0.5-1.3-1.2-2-2-2c-1.9,0-3.4,3.3-4.5,10L119.1,111.1z"/>
	<path class="st0" d="M204.4,50.7l-10.7,62.9h4c2.7,0,4.1,2.3,4.1,7c0,3.1-0.5,5.6-1.4,7.3c-1,1.8-2.3,2.7-4,2.7h-5.6l-2.2,13.1
		c-2.4,14.4-4.9,24.6-7.6,30.6s-5.9,8.9-9.8,8.9c-3.7,0-6.8-2.9-9.2-8.8c-2.5-5.9-3.7-13.2-3.7-21.9c0-6.6,0.7-12.7,2.2-18.2
		c1.5-5.5,3.5-10.1,6.2-13.6c3.4-4.5,8.1-6.7,14.1-6.7l4.7-0.1l1-5.9c-1.1,1.2-2.2,1.8-3.5,1.8c-2.8,0-5.2-2.1-7-6.2
		c-1.9-4.1-2.8-9.3-2.8-15.5c0-3.3,0.5-8,1.4-14.2l0.7-4.2l0.6-4.2c0.5-3,0.7-5.5,0.7-7.5c0-2.3-0.4-4.2-1.3-5.8
		c-0.8-1.6-1.8-2.4-3-2.4c-1.9,0-3.7,2.1-5.2,6.2c-1.6,4.2-2.4,8.7-2.4,13.7c0,2.8,0.3,5.1,0.8,6.7c0.5,1.6,1.5,3.1,2.9,4.3
		c1.4,1.3,2.1,3.5,2.1,6.5c0,2.7-0.4,4.9-1.3,6.7c-0.9,1.8-1.9,2.7-3.2,2.7c-2.5,0-4.7-2.5-6.5-7.5c-1.8-5-2.7-11.1-2.7-18.2
		c0-10.3,1.6-19.3,4.9-27c3.3-7.7,7.1-11.5,11.5-11.5c3.3,0,6,2.3,8.1,7c2.1,4.7,3.2,10.6,3.2,17.7c0,3.4-0.2,6.7-0.7,9.9l-1.2,7.5
		c-0.7,4.7-1.1,8-1.1,10c0,2.2,0.3,4.1,1,5.7c0.7,1.6,1.5,2.3,2.5,2.3c1.5,0,2.7-1.2,3.7-3.6c1-2.4,2-6.6,3-12.6l5.8-33.8
		c0.6-3.3,1.2-5.5,2-6.8c0.8-1.3,2-2,3.4-2h7c2.7,0,4.1,2.2,4.1,6.7c0,3.3-0.5,5.8-1.4,7.6c-1,1.8-2.3,2.7-4.1,2.7H204.4z
		 M182.6,130.6c-4.2,0-7.4,0.9-9.6,2.8c-2.1,1.8-3.7,4.3-4.9,7.6c-1.2,3.3-1.8,6.9-1.8,10.9c0,3.7,0.5,6.8,1.5,9.4
		c1,2.6,2.3,3.8,3.7,3.8c1.8,0,3.4-1.9,4.9-5.7c1.5-3.8,2.9-10,4.4-18.6L182.6,130.6z"/>
	<path class="st0" d="M220.6,75.3c2.9,0,5.3,2.2,7.1,6.5c1.9,4.4,2.8,9.9,2.8,16.6c0,5.1-0.5,10.1-1.5,15.1c-1,5-2.2,9-3.8,12
		c-1,1.9-2.1,3.3-3.2,4c-1.1,0.7-2.6,1.1-4.6,1.1c-3.2,0-5.4-0.9-6.6-2.8c-2.7-4.4-4-10.8-4-19.3c0-9,1.4-16.8,4.1-23.3
		C213.7,78.6,216.9,75.3,220.6,75.3z M219.9,90.4c-1.5,0-2.8,1.7-4,5.2c-1.2,3.5-1.8,7.3-1.8,11.4c0,5.5,1.3,8.2,3.9,8.2
		c1.5,0,2.7-1.1,3.5-3.3c1.4-3.6,2-7.8,2-12.5c0-2.7-0.3-4.9-1-6.5C221.8,91.2,220.9,90.4,219.9,90.4z"/>
	<path class="st0" d="M253.1,115.1h3.5c1.4,0,2.3,0.5,2.9,1.5c0.6,1,0.9,2.6,0.9,4.8c0,2.9-0.4,5.1-1.3,6.8
		c-0.9,1.6-2.1,2.4-3.7,2.4H250c-1.7,0-2.8-1.5-3.3-4.6c-1.1,3.1-2.5,4.6-4.1,4.6h-4.4c-1.7,0-3.2-1.3-4.4-3.9
		c-1.2-2.6-1.7-5.9-1.7-9.9c0-2.3,0.3-4.9,0.8-7.9l4.1-23.7c1.1-6.6,2.7-9.9,4.6-9.9c0.9,0,1.6,0.7,2.2,2c0.6,1.3,0.9,2.9,0.9,4.8
		c0,1.4-0.2,3.1-0.5,4.9l-0.3,1.9l-3.1,18.2l-0.3,2.1c-0.2,1.2-0.3,2.2-0.3,2.8c0,2.1,0.5,3.2,1.7,3.2c2.5,0,4.1-2.4,4.9-7.1
		l3.7-21.9c1.1-6.6,2.7-9.9,4.7-9.9c0.8,0,1.6,0.7,2.1,2c0.6,1.3,0.9,2.9,0.9,4.8c0,1.5-0.3,3.7-0.8,6.8L253.1,115.1z"/>
	<path class="st0" d="M268.9,91.8l-1,6c-0.9,5.3-2.1,7.9-3.6,7.9c-0.9,0-1.6-0.6-2.2-1.9c-0.6-1.3-0.9-2.9-0.9-4.8
		c0-1.1,0.2-2.9,0.7-5.5l3.4-19.8c0.8-4.8,2-7.2,3.5-7.2c1.5,0,2.4,1.7,2.7,5l0.2,2.2c0.1,1.1,0.3,1.8,0.5,2.1
		c0.2,0.3,0.8,0.4,1.8,0.4h7c2.6,0,3.9,2.2,3.9,6.5c0,6-1.6,9-4.9,9l-0.3,0.7c-3.2,7.2-4.7,12.8-4.7,16.7c0,3.9,0.9,5.9,2.7,5.9h3.8
		c2.5,0,3.8,2.1,3.8,6.2c0,2.9-0.4,5.2-1.3,6.8c-0.9,1.6-2.1,2.4-3.7,2.4h-5.8c-2,0-3.6-1.6-4.9-4.9c-1.3-3.3-1.9-7.5-1.9-12.7
		c0-3.3,0.3-6.5,1-9.7c0.7-3.1,1.9-7,3.6-11.5H268.9z"/>
	<path class="st0" d="M346.9,94.2h-8.3l-9.9,40.7c-4.6,19.3-10.2,28.9-16.5,28.9c-3.9,0-7.2-3.3-9.9-10c-2.7-6.7-4-15-4-24.9
		c0-8,1-15.8,3.1-23.2c2-7.5,4.8-13.6,8.4-18.6c2.6-3.6,5.6-6.1,8.8-7.6c3.2-1.5,7.5-2.2,12.8-2.2h2.2l2.4-10.3
		c3.3-14.3,7.3-23.9,12-28.7c3-3.1,7-4.6,11.9-4.6c1.3,0,2.2,0.7,3,2c0.7,1.3,1.1,3.2,1.1,5.5c0,1.1-0.1,2.4-0.4,3.8l-0.3,1.6
		l-5.1,30.6h2.3h0.8c2.2,0,3.3,2.3,3.3,6.9c0,2.8-0.5,5.2-1.4,7.1c-0.9,2-2,2.9-3.3,2.9h-0.8h-3.8l-3.3,19.4h4.9h0.8
		c2.2,0,3.3,2.3,3.3,6.8c0,2.8-0.5,5.2-1.4,7.2c-0.9,2-2,2.9-3.3,2.9h-0.8h-6.4c-1.7,0-3.1-1.1-4.2-3.2c-1.1-2.1-1.6-4.8-1.6-8.2
		c0-2.6,0.4-6.3,1.2-11.1L346.9,94.2z M329.6,94.2h-2.5c-5.7,0-10.2,2.5-13.5,7.5c-2.1,3.2-3.8,7.2-5.1,12.1
		c-1.3,4.8-1.9,9.7-1.9,14.6c0,4.5,0.6,8.3,1.8,11.5c1.2,3.2,2.7,4.8,4.4,4.8c3,0,5.7-4.7,8-14.2L329.6,94.2z M349.8,77.3l4.3-25.2
		c-2.1,0.3-3.9,1.9-5.3,4.8c-1.4,2.9-3.1,8.1-4.9,15.6l-1.2,4.8H349.8z"/>
	<path class="st0" d="M382.4,130.6h-8.6c-2.5,0-4.5-2.1-6.1-6.2c-1.6-4.2-2.3-9.6-2.3-16.2c0-8.8,1.3-16.5,3.8-23.1
		c2.6-6.5,5.6-9.8,9-9.8c2.3,0,4.3,1.6,5.7,4.7s2.2,7.2,2.2,12.2c0,3.5-0.4,6.4-1.1,8.6c-0.7,2.2-1.7,3.4-2.8,3.4
		c-1.8,0-2.7-2-2.7-6.1c0-0.6,0-1.1,0-1.6c0-0.5,0-1,0-1.5c0-3.3-0.7-5-2.1-5c-1.3,0-2.5,1.6-3.5,4.9c-1.1,3.3-1.6,6.9-1.6,10.9
		c0,3.4,0.4,5.7,1.3,7.1c0.9,1.4,2.3,2.1,4.4,2.1h5.6c2.5,0,3.8,2.1,3.8,6.3c0,2.8-0.5,5.1-1.4,6.7
		C385.2,129.8,384,130.6,382.4,130.6z"/>
	<path class="st0" d="M402.9,79.3c2.1-2.7,3.8-4,5.2-4c1.9,0,3.5,1.3,4.7,3.8c1.2,2.5,1.8,5.8,1.8,9.7c0,2.4-0.2,4.9-0.7,7.7
		l-3.1,18.6h3.4c2.5,0,3.8,2.1,3.8,6.3c0,2.9-0.4,5.1-1.3,6.7c-0.9,1.6-2.1,2.4-3.7,2.4h-6c-1.3,0-2.3-0.9-3.2-2.6
		c-0.9-1.7-1.3-3.8-1.3-6.4c0-1.7,0.2-3.9,0.7-6.5l2.7-16c0.3-2,0.5-3.6,0.5-4.6c0-2.7-0.8-4-2.3-4c-2,0-3.7,4.1-5.1,12.3l-3.3,19.5
		c-1.1,6.2-2.6,9.3-4.7,9.3c-0.8,0-1.5-0.6-2.1-1.8s-0.9-2.7-0.9-4.5c0-1.3,0.1-2.9,0.4-4.7l0.3-1.9l13-76.1
		c1.1-6.5,2.7-9.8,4.7-9.8c0.8,0,1.5,0.7,2.1,2c0.6,1.3,0.9,2.9,0.9,4.7c0,1.5-0.3,3.8-0.8,6.7L402.9,79.3z"/>
	<path class="st0" d="M427.4,115.1h3.4c2.5,0,3.8,2.1,3.8,6.3c0,2.9-0.4,5.1-1.3,6.7c-0.9,1.6-2.1,2.4-3.7,2.4h-4.7
		c-1.7,0-3.1-0.9-4.1-2.6c-1-1.7-1.5-4-1.5-7c0-1.6,0.2-3.5,0.6-6l4.9-28.8l0.3-2c0.9-5.3,2.4-8,4.4-8c0.8,0,1.6,0.7,2.2,2
		c0.6,1.3,0.9,2.9,0.9,4.8c0,1.5-0.3,3.8-0.8,7L427.4,115.1z M431.3,53.6c1.2,0,2.1,1,2.9,2.9c0.8,1.9,1.2,4.2,1.2,7
		c0,2.7-0.4,5.1-1.2,7c-0.8,1.9-1.8,2.9-2.9,2.9c-1.2,0-2.1-1-2.9-2.9c-0.8-1.9-1.2-4.2-1.2-7c0-2.7,0.4-5.1,1.2-7
		C429.2,54.6,430.1,53.6,431.3,53.6z"/>
	<path class="st0" d="M442.8,109.8c0,3.5,1.1,5.3,3.4,5.3h8.9c2.5,0,3.8,2.1,3.8,6.3c0,2.9-0.4,5.1-1.3,6.7
		c-0.9,1.6-2.1,2.4-3.7,2.4h-8.4c-3.1,0-5.5-1.8-7.2-5.5s-2.5-9.1-2.5-16.2c0-9.1,1.3-17,3.9-23.6c2.6-6.6,5.7-9.9,9.3-9.9
		c2.6,0,4.7,1.6,6.3,4.9c1.6,3.2,2.4,7.5,2.4,12.8c0,6.4-1.1,11.1-3.3,14.2c-1.2,1.8-3,2.6-5.4,2.6H442.8z M444.2,96.9h3.3
		c2.1,0,3.2-1.1,3.1-3.3c-0.1-2.5-0.7-3.8-2.1-3.8C446.7,89.8,445.3,92.1,444.2,96.9z"/>
	<path class="st0" d="M467.4,105.6l6.9-22.4l0.5-1.9c1.2-4,2.4-6,3.9-6c0.9,0,1.7,0.7,2.3,2.1c0.6,1.4,0.9,3.2,0.9,5.4
		c0,2.4-0.6,5.4-1.8,9.1l-11,34c-1.2,3.8-2.7,5.7-4.4,5.7c-1.4,0-2.5-1.2-3.3-3.5c-0.8-2.3-1.2-5.5-1.2-9.6c0-0.9,0-1.5,0-2.1
		l1.1-28.3c0.1-3.8,0.6-6.8,1.3-8.8c0.7-2,1.7-3,2.9-3c1.9,0,2.8,2.3,2.8,6.8c0,0.7,0,1.8-0.1,3.4L467.4,105.6z"/>
	<path class="st0" d="M487.5,109.8c0,3.5,1.1,5.3,3.4,5.3h8.9c2.5,0,3.8,2.1,3.8,6.3c0,2.9-0.4,5.1-1.3,6.7
		c-0.9,1.6-2.1,2.4-3.7,2.4H490c-3.1,0-5.5-1.8-7.2-5.5s-2.5-9.1-2.5-16.2c0-9.1,1.3-17,3.9-23.6c2.6-6.6,5.7-9.9,9.3-9.9
		c2.6,0,4.7,1.6,6.3,4.9c1.6,3.2,2.4,7.5,2.4,12.8c0,6.4-1.1,11.1-3.3,14.2c-1.2,1.8-3,2.6-5.4,2.6H487.5z M488.9,96.9h3.3
		c2.1,0,3.2-1.1,3.1-3.3c-0.1-2.5-0.7-3.8-2.1-3.8C491.4,89.8,490,92.1,488.9,96.9z"/>
	<path class="st0" d="M540.5,115.1h3.5c2.5,0,3.8,2.1,3.8,6.3c0,2.9-0.4,5.1-1.3,6.7c-0.9,1.6-2.1,2.4-3.7,2.4h-6.1
		c-1.3,0-2.4-0.8-3.2-2.5c-0.8-1.7-1.2-3.8-1.2-6.5c0-1.8,0.3-4.4,0.8-7.5l2.8-16.3c0.2-0.9,0.2-1.8,0.2-2.6c0-3.1-0.7-4.6-2-4.6
		c-1,0-2,1.1-3,3.3c-1,2.2-1.8,5.1-2.4,8.7l-3.3,19.6c-1.1,6.3-2.7,9.5-4.8,9.5c-0.8,0-1.5-0.6-2.1-1.9s-0.9-2.8-0.9-4.5
		c0-1.4,0.1-3,0.4-4.8l0.3-1.9l3.4-19.8c0.3-1.8,0.4-3.1,0.4-4.1c0-1-0.2-2-0.6-2.7c-0.4-0.8-0.9-1.2-1.4-1.2
		c-2.1,0-3.8,3.7-5.1,11.1l-3.5,20.4c-1.1,6.4-2.7,9.6-4.7,9.6c-0.8,0-1.5-0.6-2.1-1.9c-0.6-1.3-0.9-2.8-0.9-4.6
		c0-1.4,0.1-3,0.4-4.8l0.3-1.9l5.9-34.8c0.8-4.9,2.1-7.3,3.8-7.3c1.7,0,2.8,1.9,3.2,5.8c1.4-2.7,2.4-4.6,3.3-5.5
		c0.8-0.9,1.9-1.3,3.1-1.3c2.7,0,4.7,2.8,6,8.3c2.2-5.5,4.7-8.3,7.5-8.3c1.9,0,3.5,1.3,4.8,3.9c1.3,2.6,1.9,5.9,1.9,9.7
		c0,2.4-0.2,4.9-0.7,7.5L540.5,115.1z"/>
	<path class="st0" d="M556.1,109.8c0,3.5,1.1,5.3,3.4,5.3h8.9c2.5,0,3.8,2.1,3.8,6.3c0,2.9-0.4,5.1-1.3,6.7
		c-0.9,1.6-2.1,2.4-3.7,2.4h-8.4c-3.1,0-5.5-1.8-7.2-5.5s-2.5-9.1-2.5-16.2c0-9.1,1.3-17,3.9-23.6c2.6-6.6,5.7-9.9,9.3-9.9
		c2.6,0,4.7,1.6,6.3,4.9c1.6,3.2,2.4,7.5,2.4,12.8c0,6.4-1.1,11.1-3.3,14.2c-1.2,1.8-3,2.6-5.4,2.6H556.1z M557.5,96.9h3.3
		c2.1,0,3.2-1.1,3.1-3.3c-0.1-2.5-0.7-3.8-2.1-3.8C560,89.8,558.6,92.1,557.5,96.9z"/>
	<path class="st0" d="M595.3,115.1h3.6c2.5,0,3.8,2.1,3.8,6.3c0,2.9-0.4,5.1-1.3,6.7c-0.9,1.6-2.1,2.4-3.7,2.4h-6.2
		c-1.2,0-2.2-0.9-3.1-2.6c-0.8-1.8-1.2-4-1.2-6.6c0-1.6,0.3-4,0.8-7.2l2.6-15.5c0.3-1.6,0.4-2.9,0.4-3.9c0-1.1-0.2-2.1-0.6-2.9
		c-0.4-0.8-0.9-1.2-1.6-1.2c-2,0-3.7,3.7-4.9,11l-3.5,20.6c-1.1,6.2-2.6,9.4-4.7,9.4c-0.9,0-1.6-0.6-2.2-1.8
		c-0.6-1.2-0.9-2.7-0.9-4.5c0-1.3,0.2-2.9,0.5-4.8l0.3-1.9l6-35.3c0.8-4.6,2.1-6.9,4-6.9c1.5,0,2.6,1.6,3.3,4.8
		c2.1-3.9,4.2-5.8,6.1-5.8c1.9,0,3.4,1.3,4.6,3.8c1.2,2.6,1.8,5.8,1.8,9.7c0,2.2-0.2,4.6-0.7,7.2L595.3,115.1z"/>
	<path class="st0" d="M618.6,76.3h0.9c2.5,0,3.8,2.1,3.8,6.3c0,2.9-0.4,5.1-1.3,6.7c-0.9,1.6-2.1,2.4-3.7,2.4h-2.2l-4,23.3h3.3
		c2.5,0,3.8,2.1,3.8,6.3c0,2.9-0.4,5.1-1.3,6.7c-0.9,1.6-2.1,2.4-3.7,2.4h-5.3c-1.5,0-2.7-0.8-3.6-2.5c-0.9-1.7-1.3-3.9-1.3-6.7
		c0-1.8,0.2-3.7,0.5-5.8l0.6-3.1l3.5-20.7h-0.4c-2.2,0-3.3-2.1-3.3-6.2c0-2.9,0.4-5.2,1.3-6.8c0.9-1.6,2.1-2.4,3.7-2.4h1.4l1.6-9.3
		l0.3-1.9c0.9-5.3,2.4-7.9,4.4-7.9c0.8,0,1.5,0.7,2.1,2c0.6,1.3,0.9,2.9,0.9,4.7c0,1.8-0.3,4.1-0.8,6.8L618.6,76.3z"/>
</g>
</svg>
